<svg width="259" height="191" viewBox="0 0 259 191" fill="none" xmlns="http://www.w3.org/2000/svg">
<path d="M120.221 67.125C123.719 61.2685 143.012 44.549 150.02 39.9525C147.2 43.2729 139.677 49.8668 133.372 55.7291C125.491 63.0569 122.591 69.2554 115.307 82.4311C108.024 95.6068 109.635 97.5389 108.206 113.627C107.063 126.498 108.897 140.253 109.88 144.151L100.814 144.17C102.149 129.641 105.224 99.0636 106.848 92.9772C108.879 85.3691 115.849 74.4455 120.221 67.125Z" fill="black"/>
<path d="M247.926 156.648H6.6626C3.34889 156.648 0.662598 159.334 0.662598 162.648V183.08C0.662598 186.394 3.34889 189.08 6.6626 189.08H247.926C251.239 189.08 253.926 186.394 253.926 183.08V162.648C253.926 159.334 251.239 156.648 247.926 156.648Z" fill="#008000"/>
<path d="M26.6938 181.648H22.751L30.0508 163.338H34.0181L41.3057 181.648H37.3628L35.8613 177.717H28.1953L26.6938 181.648ZM29.4282 174.422H34.6406L32.0283 167.634L29.4282 174.422ZM44.8579 166.524C44.394 166.524 44.0034 166.361 43.686 166.035C43.3687 165.71 43.21 165.315 43.21 164.851C43.21 164.387 43.3687 163.997 43.686 163.679C44.0034 163.354 44.394 163.191 44.8579 163.191C45.3299 163.191 45.7246 163.354 46.042 163.679C46.3675 163.997 46.5303 164.387 46.5303 164.851C46.5303 165.315 46.3675 165.71 46.042 166.035C45.7246 166.361 45.3299 166.524 44.8579 166.524ZM46.6157 181.648H43.1123V169.441H46.6157V181.648ZM54.123 181.648H50.6196V172.566H48.4834V169.441H50.6196V167.537C50.6196 166.658 50.8271 165.877 51.2422 165.193C51.6572 164.501 52.2269 163.96 52.9512 163.569C53.6836 163.171 54.5137 162.971 55.4414 162.971C56.0273 162.971 56.6255 163.057 57.2358 163.228C57.8462 163.39 58.4484 163.651 59.0425 164.009L57.7119 166.731C57.4515 166.519 57.1748 166.365 56.8818 166.267C56.597 166.161 56.3122 166.109 56.0273 166.109C55.4902 166.109 55.0386 166.296 54.6724 166.67C54.3062 167.044 54.123 167.561 54.123 168.22V169.441H57.7729V172.566H54.123V181.648ZM71.4082 181.648H68.3564L68.1733 180.195C67.7257 180.733 67.1724 181.152 66.5132 181.453C65.854 181.746 65.1297 181.892 64.3403 181.892C63.4858 181.892 62.7249 181.729 62.0576 181.404C61.3903 181.07 60.8654 180.615 60.4829 180.037C60.1004 179.451 59.9092 178.788 59.9092 178.047C59.9092 177.266 60.1167 176.578 60.5317 175.984C60.9468 175.39 61.5164 174.926 62.2407 174.592C62.9731 174.251 63.8032 174.08 64.731 174.08C65.2762 174.08 65.8215 174.141 66.3667 174.263C66.9201 174.385 67.4328 174.556 67.9048 174.776V174.458C67.9048 173.97 67.7664 173.551 67.4897 173.201C67.2212 172.843 66.8468 172.566 66.3667 172.371C65.8947 172.175 65.3657 172.078 64.7798 172.078C64.2183 172.078 63.6608 172.167 63.1074 172.346C62.5622 172.525 62.0576 172.794 61.5938 173.152L60.6416 170.479C61.4635 170.055 62.2936 169.738 63.1318 169.526C63.9782 169.307 64.7961 169.197 65.5854 169.197C66.7736 169.197 67.8031 169.433 68.6738 169.905C69.5446 170.369 70.216 171.028 70.688 171.882C71.1681 172.729 71.4082 173.734 71.4082 174.898V181.648ZM65.1094 179.194C65.5732 179.194 66.0168 179.093 66.4399 178.889C66.8631 178.686 67.2049 178.409 67.4653 178.059C67.7339 177.709 67.8763 177.323 67.8926 176.9V176.814C67.5345 176.57 67.1357 176.383 66.6963 176.253C66.265 176.114 65.8255 176.045 65.3779 176.045C64.7106 176.045 64.1654 176.192 63.7422 176.484C63.319 176.777 63.1074 177.156 63.1074 177.62C63.1074 177.921 63.1929 178.193 63.3638 178.438C63.5428 178.674 63.7829 178.861 64.084 178.999C64.3851 179.129 64.7269 179.194 65.1094 179.194ZM78.9521 179.671L80.7344 176.802C81.2959 177.258 81.8371 177.632 82.3579 177.925C82.8869 178.21 83.4077 178.421 83.9204 178.56C84.4331 178.69 84.958 178.755 85.4951 178.755C86.1299 178.755 86.6792 178.665 87.1431 178.486C87.6069 178.307 87.965 178.051 88.2173 177.717C88.4777 177.384 88.6079 176.997 88.6079 176.558C88.6079 176.045 88.4451 175.614 88.1196 175.264C87.7941 174.914 87.3669 174.609 86.8379 174.348C86.3171 174.08 85.7515 173.823 85.1411 173.579C84.547 173.335 83.9489 173.071 83.3467 172.786C82.7526 172.493 82.2033 172.147 81.6987 171.748C81.2023 171.349 80.7995 170.865 80.4902 170.296C80.1891 169.718 80.0386 169.018 80.0386 168.196C80.0386 167.122 80.3071 166.194 80.8442 165.413C81.3895 164.631 82.1341 164.029 83.0781 163.606C84.0221 163.183 85.1004 162.971 86.313 162.971C87.1675 162.971 88.0545 163.085 88.9741 163.313C89.9019 163.541 90.8255 163.887 91.7451 164.351L90.2681 167.39C89.6903 167.04 89.0677 166.764 88.4004 166.56C87.7331 166.357 87.1064 166.255 86.5205 166.255C85.9915 166.255 85.5277 166.336 85.1289 166.499C84.7383 166.662 84.4331 166.89 84.2134 167.183C83.9937 167.468 83.8838 167.805 83.8838 168.196C83.8838 168.66 84.0425 169.063 84.3599 169.404C84.6772 169.738 85.0882 170.035 85.5928 170.296C86.1055 170.556 86.6548 170.816 87.2407 171.077C87.8429 171.337 88.4492 171.622 89.0596 171.931C89.6781 172.241 90.2396 172.607 90.7441 173.03C91.2568 173.445 91.6678 173.945 91.9771 174.531C92.2944 175.109 92.4531 175.805 92.4531 176.619C92.4531 177.693 92.1683 178.637 91.5986 179.451C91.029 180.256 90.2355 180.887 89.2183 181.343C88.201 181.79 87.0169 182.014 85.666 182.014C84.429 182.014 83.245 181.815 82.1138 181.416C80.9826 181.017 79.9287 180.436 78.9521 179.671ZM106.064 180.281C104.55 181.355 102.894 181.892 101.096 181.892C99.7611 181.892 98.5607 181.607 97.4946 181.038C96.4367 180.46 95.5985 179.679 94.98 178.694C94.3696 177.709 94.0645 176.598 94.0645 175.361C94.0645 174.181 94.3411 173.128 94.8945 172.2C95.4561 171.272 96.217 170.54 97.1772 170.003C98.1375 169.465 99.228 169.197 100.449 169.197C101.71 169.197 102.821 169.494 103.781 170.088C104.742 170.674 105.49 171.496 106.027 172.554C106.564 173.604 106.833 174.82 106.833 176.204V176.594H97.8364C97.9829 177.075 98.223 177.498 98.5566 177.864C98.8903 178.222 99.3053 178.507 99.8018 178.718C100.298 178.93 100.868 179.036 101.511 179.036C102.756 179.036 103.916 178.633 104.99 177.827L106.064 180.281ZM97.6777 174.812H103.598C103.533 174.283 103.366 173.819 103.098 173.421C102.837 173.014 102.491 172.696 102.06 172.468C101.637 172.241 101.161 172.127 100.632 172.127C100.095 172.127 99.6146 172.245 99.1914 172.481C98.7764 172.717 98.4386 173.034 98.1782 173.433C97.9178 173.832 97.751 174.291 97.6777 174.812ZM112.558 181.648H109.055V169.441H112.106L112.229 171.553C112.635 170.812 113.189 170.234 113.889 169.819C114.589 169.404 115.39 169.197 116.293 169.197C116.554 169.197 116.814 169.217 117.075 169.258C117.343 169.29 117.616 169.343 117.893 169.417L117.453 172.566C116.916 172.411 116.407 172.334 115.927 172.334C115.252 172.334 114.658 172.489 114.145 172.798C113.64 173.099 113.25 173.522 112.973 174.068C112.696 174.605 112.558 175.235 112.558 175.96V181.648ZM132.126 169.441L127.146 181.648H123.752L118.771 169.441H122.519L125.461 178.108L128.403 169.441H132.126ZM135.898 166.524C135.434 166.524 135.043 166.361 134.726 166.035C134.409 165.71 134.25 165.315 134.25 164.851C134.25 164.387 134.409 163.997 134.726 163.679C135.043 163.354 135.434 163.191 135.898 163.191C136.37 163.191 136.765 163.354 137.082 163.679C137.408 163.997 137.57 164.387 137.57 164.851C137.57 165.315 137.408 165.71 137.082 166.035C136.765 166.361 136.37 166.524 135.898 166.524ZM137.656 181.648H134.152V169.441H137.656V181.648ZM151.486 179.707C150.892 180.391 150.164 180.928 149.301 181.318C148.439 181.701 147.491 181.892 146.457 181.892C145.204 181.892 144.081 181.62 143.088 181.074C142.103 180.521 141.326 179.764 140.756 178.804C140.195 177.844 139.914 176.757 139.914 175.545C139.914 174.324 140.195 173.237 140.756 172.285C141.326 171.325 142.103 170.572 143.088 170.027C144.081 169.474 145.204 169.197 146.457 169.197C147.482 169.197 148.426 169.388 149.289 169.771C150.152 170.153 150.88 170.682 151.474 171.358L149.411 173.518C149.094 173.152 148.691 172.867 148.203 172.664C147.722 172.452 147.218 172.346 146.689 172.346C146.079 172.346 145.533 172.485 145.053 172.761C144.573 173.03 144.195 173.404 143.918 173.884C143.641 174.356 143.503 174.902 143.503 175.52C143.503 176.147 143.641 176.704 143.918 177.193C144.195 177.681 144.573 178.063 145.053 178.34C145.533 178.609 146.079 178.743 146.689 178.743C147.218 178.743 147.727 178.641 148.215 178.438C148.703 178.226 149.102 177.937 149.411 177.571L151.486 179.707ZM164.877 180.281C163.364 181.355 161.708 181.892 159.909 181.892C158.575 181.892 157.374 181.607 156.308 181.038C155.25 180.46 154.412 179.679 153.793 178.694C153.183 177.709 152.878 176.598 152.878 175.361C152.878 174.181 153.155 173.128 153.708 172.2C154.27 171.272 155.03 170.54 155.991 170.003C156.951 169.465 158.042 169.197 159.262 169.197C160.524 169.197 161.634 169.494 162.595 170.088C163.555 170.674 164.304 171.496 164.841 172.554C165.378 173.604 165.646 174.82 165.646 176.204V176.594H156.65C156.796 177.075 157.036 177.498 157.37 177.864C157.704 178.222 158.119 178.507 158.615 178.718C159.112 178.93 159.681 179.036 160.324 179.036C161.569 179.036 162.729 178.633 163.803 177.827L164.877 180.281ZM156.491 174.812H162.412C162.347 174.283 162.18 173.819 161.911 173.421C161.651 173.014 161.305 172.696 160.874 172.468C160.45 172.241 159.974 172.127 159.445 172.127C158.908 172.127 158.428 172.245 158.005 172.481C157.59 172.717 157.252 173.034 156.992 173.433C156.731 173.832 156.564 174.291 156.491 174.812ZM167.014 180.598L167.783 177.62C168.027 177.888 168.352 178.137 168.759 178.364C169.174 178.592 169.618 178.775 170.09 178.914C170.57 179.044 171.022 179.109 171.445 179.109C171.949 179.109 172.344 179.015 172.629 178.828C172.914 178.633 173.056 178.373 173.056 178.047C173.056 177.778 172.958 177.555 172.763 177.376C172.576 177.188 172.32 177.026 171.994 176.887C171.677 176.741 171.323 176.598 170.932 176.46C170.403 176.257 169.858 176.021 169.296 175.752C168.743 175.484 168.275 175.117 167.893 174.653C167.51 174.19 167.319 173.575 167.319 172.81C167.319 172.078 167.51 171.443 167.893 170.906C168.275 170.361 168.816 169.942 169.516 169.649C170.216 169.347 171.03 169.197 171.958 169.197C173.463 169.197 174.965 169.575 176.462 170.332L175.473 173.103C175.213 172.9 174.887 172.713 174.497 172.542C174.106 172.363 173.703 172.22 173.288 172.114C172.881 172.009 172.515 171.956 172.189 171.956C171.791 171.956 171.477 172.037 171.25 172.2C171.03 172.363 170.92 172.586 170.92 172.871C170.92 173.083 170.997 173.274 171.152 173.445C171.306 173.608 171.534 173.766 171.835 173.921C172.145 174.068 172.523 174.226 172.971 174.397C173.524 174.601 174.082 174.845 174.643 175.13C175.213 175.406 175.689 175.781 176.071 176.253C176.462 176.716 176.657 177.335 176.657 178.108C176.657 178.865 176.45 179.528 176.035 180.098C175.628 180.667 175.05 181.111 174.301 181.428C173.561 181.738 172.69 181.892 171.689 181.892C170.021 181.892 168.462 181.461 167.014 180.598ZM196.408 181.648H184.445V163.338H188.205V178.364H196.408V181.648ZM205.234 181.331C204.298 181.705 203.391 181.892 202.512 181.892C201.6 181.892 200.795 181.701 200.095 181.318C199.403 180.928 198.862 180.387 198.471 179.695C198.081 178.995 197.885 178.189 197.885 177.278V172.566H195.749V169.441H198.068V166.389H201.389V169.441H204.77V172.566H201.389V176.643C201.389 177.311 201.572 177.831 201.938 178.206C202.304 178.572 202.76 178.755 203.305 178.755C203.802 178.755 204.286 178.6 204.758 178.291L205.234 181.331ZM219.846 181.648H216.77L216.586 179.988C216.066 180.574 215.439 181.038 214.707 181.38C213.982 181.721 213.189 181.892 212.326 181.892C211.211 181.892 210.214 181.62 209.335 181.074C208.465 180.521 207.777 179.764 207.272 178.804C206.768 177.844 206.516 176.757 206.516 175.545C206.516 174.324 206.768 173.237 207.272 172.285C207.777 171.325 208.465 170.572 209.335 170.027C210.214 169.474 211.211 169.197 212.326 169.197C213.124 169.197 213.864 169.343 214.548 169.636C215.24 169.921 215.838 170.32 216.342 170.833V163.338H219.846V181.648ZM213.229 178.755C213.807 178.755 214.328 178.625 214.792 178.364C215.264 178.104 215.638 177.75 215.915 177.302C216.2 176.847 216.342 176.33 216.342 175.752V175.313C216.342 174.735 216.2 174.222 215.915 173.775C215.638 173.327 215.264 172.977 214.792 172.725C214.328 172.464 213.807 172.334 213.229 172.334C212.635 172.334 212.102 172.472 211.63 172.749C211.158 173.026 210.784 173.408 210.507 173.897C210.239 174.377 210.104 174.926 210.104 175.545C210.104 176.155 210.239 176.704 210.507 177.193C210.784 177.673 211.158 178.055 211.63 178.34C212.102 178.617 212.635 178.755 213.229 178.755ZM224.289 181.892C223.801 181.892 223.402 181.742 223.093 181.441C222.792 181.131 222.641 180.728 222.641 180.232C222.641 179.736 222.792 179.337 223.093 179.036C223.402 178.727 223.801 178.572 224.289 178.572C224.785 178.572 225.188 178.727 225.498 179.036C225.807 179.337 225.961 179.736 225.961 180.232C225.961 180.728 225.807 181.131 225.498 181.441C225.188 181.742 224.785 181.892 224.289 181.892Z" fill="#F8FAFC"/>
<path d="M59.4936 144.118C56.0472 144.118 52.9195 143.468 50.1105 142.17C47.3015 140.848 45.0708 138.948 43.4184 136.469C41.7661 133.967 40.9399 130.946 40.9399 127.405C40.9399 124.289 41.5536 121.763 42.7811 119.828C44.0086 117.869 45.6491 116.334 47.7028 115.225C49.7564 114.115 52.0225 113.289 54.5011 112.746C57.0032 112.18 59.5172 111.731 62.0429 111.401C65.3477 110.976 68.0268 110.657 70.0805 110.445C72.1578 110.209 73.6685 109.819 74.6127 109.276C75.5805 108.733 76.0644 107.789 76.0644 106.444V106.16C76.0644 102.667 75.1084 99.9522 73.1964 98.0166C71.308 96.081 68.4399 95.1132 64.5923 95.1132C60.603 95.1132 57.4753 95.9866 55.2092 97.7333C52.9431 99.4801 51.3498 101.345 50.4292 103.328L42.4978 100.495C43.9142 97.1904 45.8026 94.6175 48.1631 92.7763C50.5472 90.9114 53.1438 89.6132 55.9528 88.8814C58.7854 88.126 61.5708 87.7484 64.309 87.7484C66.0558 87.7484 68.0623 87.9608 70.3284 88.3857C72.6181 88.787 74.8251 89.625 76.9496 90.8996C79.0977 92.1743 80.8799 94.0981 82.2962 96.6711C83.7125 99.2441 84.4207 102.69 84.4207 107.01V142.843H76.0644V135.478H75.6395C75.073 136.658 74.1288 137.921 72.8069 139.267C71.485 140.612 69.7264 141.757 67.5311 142.701C65.3359 143.645 62.6567 144.118 59.4936 144.118ZM60.7683 136.611C64.073 136.611 66.8584 135.962 69.1245 134.664C71.4142 133.365 73.1374 131.689 74.294 129.636C75.4743 127.582 76.0644 125.422 76.0644 123.156V115.508C75.7103 115.933 74.9314 116.322 73.7275 116.677C72.5472 117.007 71.1781 117.302 69.6202 117.562C68.0859 117.798 66.5869 118.01 65.1234 118.199C63.6835 118.364 62.515 118.506 61.618 118.624C59.4464 118.907 57.4163 119.367 55.5279 120.005C53.6631 120.619 52.1524 121.551 50.9957 122.802C49.8627 124.03 49.2961 125.705 49.2961 127.83C49.2961 130.733 50.3702 132.929 52.5182 134.416C54.6899 135.879 57.4399 136.611 60.7683 136.611Z" fill="#008000"/>
<path d="M194.882 144.118C191.436 144.118 188.308 143.468 185.499 142.17C182.69 140.848 180.459 138.948 178.807 136.469C177.155 133.967 176.328 130.946 176.328 127.405C176.328 124.289 176.942 121.763 178.17 119.828C179.397 117.869 181.038 116.334 183.091 115.225C185.145 114.115 187.411 113.289 189.89 112.746C192.392 112.18 194.906 111.731 197.431 111.401C200.736 110.976 203.415 110.657 205.469 110.445C207.546 110.209 209.057 109.819 210.001 109.276C210.969 108.733 211.453 107.789 211.453 106.444V106.16C211.453 102.667 210.497 99.9522 208.585 98.0166C206.696 96.081 203.828 95.1132 199.981 95.1132C195.991 95.1132 192.864 95.9866 190.598 97.7333C188.332 99.4801 186.738 101.345 185.818 103.328L177.886 100.495C179.303 97.1904 181.191 94.6175 183.552 92.7763C185.936 90.9114 188.532 89.6132 191.341 88.8814C194.174 88.126 196.959 87.7484 199.698 87.7484C201.444 87.7484 203.451 87.9608 205.717 88.3857C208.007 88.787 210.214 89.625 212.338 90.8996C214.486 92.1743 216.268 94.0981 217.685 96.6711C219.101 99.2441 219.809 102.69 219.809 107.01V142.843H211.453V135.478H211.028C210.461 136.658 209.517 137.921 208.195 139.267C206.873 140.612 205.115 141.757 202.92 142.701C200.724 143.645 198.045 144.118 194.882 144.118ZM196.157 136.611C199.461 136.611 202.247 135.962 204.513 134.664C206.803 133.365 208.526 131.689 209.682 129.636C210.863 127.582 211.453 125.422 211.453 123.156V115.508C211.099 115.933 210.32 116.322 209.116 116.677C207.936 117.007 206.567 117.302 205.009 117.562C203.474 117.798 201.975 118.01 200.512 118.199C199.072 118.364 197.904 118.506 197.007 118.624C194.835 118.907 192.805 119.367 190.916 120.005C189.052 120.619 187.541 121.551 186.384 122.802C185.251 124.03 184.685 125.705 184.685 127.83C184.685 130.733 185.759 132.929 187.907 134.416C190.078 135.879 192.828 136.611 196.157 136.611Z" fill="#008000"/>
<path d="M163.718 103.734V108.992H127.294V103.734H163.718ZM138.204 144.118V98.1598C138.204 95.8462 139.113 93.9181 140.931 92.3757C142.749 90.8332 145.11 89.6764 148.014 88.9052C150.917 88.134 153.982 87.7484 157.208 87.7484C159.759 87.7484 161.841 87.871 163.454 88.1164C165.067 88.3618 166.27 88.5897 167.061 88.8L164.07 94.1635C163.542 94.0583 162.809 93.9269 161.871 93.7691C160.961 93.6114 159.759 93.5325 158.263 93.5325C154.832 93.5325 152.354 94.0496 150.829 95.0837C149.333 96.1178 148.585 97.634 148.585 99.6322V144.118H138.204Z" fill="#008000"/>
<path d="M162.318 61.9208C162.465 66.13 159.066 69.6651 154.726 69.8167C150.386 69.9682 146.748 66.6789 146.601 62.4697C146.454 58.2605 149.854 54.7254 154.194 54.5738C158.534 54.4223 162.171 57.7116 162.318 61.9208Z" fill="#F1F5F9" fill-opacity="0.18"/>
<path d="M126.582 19.1497C119.302 25.4464 114.642 34.5274 112.842 43.7359C111.283 51.7068 111.877 59.7243 114.72 66.0786C114.892 65.5612 115.23 65.1123 115.775 64.8494C116.224 64.6327 116.669 64.6896 117.034 64.9434C117.363 65.1723 117.602 65.5409 117.776 65.9205C118.129 66.6894 118.319 67.7328 118.339 68.6352C118.349 69.089 118.317 69.5323 118.229 69.9056C118.19 70.0705 118.135 70.249 118.051 70.4148C118.616 70.6209 119.265 70.6874 119.983 70.5499C120.346 70.4804 120.779 70.1943 121.33 69.5758C121.873 68.9671 122.471 68.1065 123.18 67.0087C123.532 66.4643 123.909 65.8649 124.317 65.2164C125.542 63.2692 127.046 60.8794 128.979 58.2064C134.147 51.0618 142.41 41.8523 156.92 33.1627L157.477 33.9917L157.177 33.5917C157.477 33.9917 157.477 33.9916 157.477 33.9917L157.476 33.9926L157.472 33.9953L157.457 34.0066L157.397 34.052C157.344 34.0924 157.264 34.1528 157.16 34.2325C156.951 34.3919 156.643 34.6284 156.249 34.9361C155.46 35.5517 154.323 36.452 152.933 37.5896C150.154 39.8653 146.367 43.0891 142.334 46.882C134.365 54.3757 125.501 64.0335 121.509 72.9608C127.618 76.8529 135.951 78.4789 144.484 77.6942C153.176 76.8948 162.024 73.5973 168.868 67.7134C177.715 59.9804 181.68 48.4818 184.065 33.1976C184.248 31.8766 184.405 30.4704 184.568 29.022C184.962 25.5046 185.384 21.7381 186.253 18.3367C187.322 14.1502 189.098 10.3726 192.443 8.18488C192.298 8.17905 192.144 8.17307 191.982 8.16698C190.537 8.11261 188.453 8.05049 185.901 8.01959C180.796 7.9578 173.824 8.02099 166.351 8.52049C158.874 9.02015 150.909 9.95556 143.813 11.6345C136.703 13.3165 130.529 15.731 126.582 19.1497ZM116.214 68.9228C116.467 69.3074 116.788 69.6582 117.17 69.9398C117.199 69.876 117.229 69.7891 117.256 69.6768C117.318 69.4118 117.348 69.0586 117.339 68.6575C117.321 67.85 117.148 66.9496 116.867 66.3374C116.725 66.0264 116.579 65.8452 116.463 65.7645C116.383 65.7087 116.321 65.6962 116.21 65.75C115.852 65.9226 115.63 66.2788 115.587 66.8079C115.544 67.3435 115.694 68.0053 116.042 68.6373C116.099 68.733 116.156 68.8282 116.214 68.9228Z" fill="url(#paint0_linear_243_60)"/>
<path d="M157.477 33.9917L156.92 33.1627C142.41 41.8523 134.147 51.0618 128.979 58.2064C127.046 60.8794 125.542 63.2692 124.317 65.2164C123.909 65.8649 123.532 66.4643 123.18 67.0087C122.471 68.1065 121.873 68.9671 121.33 69.5758C120.779 70.1943 120.346 70.4804 119.983 70.5499C119.265 70.6874 118.616 70.6209 118.051 70.4148C118.135 70.249 118.19 70.0705 118.229 69.9056C118.317 69.5323 118.349 69.089 118.339 68.6352C118.319 67.7328 118.129 66.6894 117.776 65.9205C117.602 65.5409 117.363 65.1723 117.034 64.9434C116.669 64.6896 116.224 64.6327 115.775 64.8494C115.23 65.1123 114.892 65.5612 114.72 66.0786C111.877 59.7243 111.283 51.7068 112.842 43.7359C114.642 34.5274 119.302 25.4464 126.582 19.1497C130.529 15.731 136.703 13.3165 143.813 11.6345C150.909 9.95556 158.874 9.02015 166.351 8.52049C173.824 8.02099 180.796 7.9578 185.901 8.01959C188.453 8.05049 190.537 8.11261 191.982 8.16698C192.144 8.17307 192.298 8.17905 192.443 8.18488C189.098 10.3726 187.322 14.1502 186.253 18.3367C185.384 21.7381 184.962 25.5046 184.568 29.022C184.405 30.4704 184.248 31.8766 184.065 33.1976C181.68 48.4818 177.715 59.9804 168.868 67.7134C162.024 73.5973 153.176 76.8948 144.484 77.6942C135.951 78.4789 127.618 76.8529 121.509 72.9608C125.501 64.0335 134.365 54.3757 142.334 46.882C146.367 43.0891 150.154 39.8653 152.933 37.5896C154.323 36.452 155.46 35.5517 156.249 34.9361C156.643 34.6284 156.951 34.3919 157.16 34.2325C157.264 34.1528 157.344 34.0924 157.397 34.052L157.457 34.0066L157.472 33.9953L157.476 33.9926L157.477 33.9917ZM157.477 33.9917L157.177 33.5917C157.477 33.9917 157.477 33.9916 157.477 33.9917ZM116.214 68.9228C116.467 69.3074 116.788 69.6582 117.17 69.9398C117.199 69.876 117.229 69.7891 117.256 69.6768C117.318 69.4118 117.348 69.0586 117.339 68.6575C117.321 67.85 117.148 66.9496 116.867 66.3374C116.725 66.0264 116.579 65.8452 116.463 65.7645C116.383 65.7087 116.321 65.6962 116.21 65.75C115.852 65.9226 115.63 66.2788 115.587 66.8079C115.544 67.3435 115.694 68.0053 116.042 68.6373C116.099 68.733 116.156 68.8282 116.214 68.9228Z" stroke="black" stroke-linejoin="bevel"/>
<path d="M115.442 69.2171C115.83 69.8503 116.224 70.353 116.642 70.6629C116.823 70.7972 117.045 70.9228 117.304 70.9867C118.251 71.5234 119.42 71.7804 120.765 71.5231C120.773 71.5216 120.781 71.5201 120.789 71.5185C120.676 71.7634 120.567 72.0079 120.462 72.2518L120.129 73.0209L120.829 73.4829C127.318 77.772 136.172 79.5109 145.121 78.6879C154.079 77.864 163.234 74.4649 170.347 68.3495L170.347 68.3495L170.353 68.3442C179.616 60.249 183.65 48.2968 186.048 32.9244L186.049 32.9157L186.05 32.9069C186.244 31.5037 186.407 30.0471 186.573 28.5691C186.962 25.0952 187.365 21.5032 188.207 18.2078C189.4 13.5339 191.396 9.8372 195.162 8.18428L194.818 6.27026L194.76 7.2686C194.818 6.27026 194.817 6.27024 194.817 6.27021L194.815 6.2701L194.807 6.26966L194.778 6.26802L194.664 6.26185C194.564 6.25653 194.415 6.2489 194.222 6.23957C193.835 6.2209 193.266 6.19543 192.538 6.16804C191.082 6.11325 188.985 6.05077 186.419 6.0197C181.288 5.95758 174.275 6.02095 166.75 6.52383C159.23 7.02641 151.175 7.96957 143.967 9.67473C136.787 11.3735 130.325 13.8562 126.1 17.5159C118.528 24.0655 113.723 33.4649 111.87 42.9481C110.047 52.273 111.054 61.8054 115.237 68.8768C115.3 68.9914 115.369 69.105 115.442 69.2171Z" fill="url(#paint1_diamond_243_60)"/>
<path d="M115.442 69.2171C115.83 69.8503 116.224 70.353 116.642 70.6629C116.823 70.7972 117.045 70.9228 117.304 70.9867C118.251 71.5234 119.42 71.7804 120.765 71.5231C120.773 71.5216 120.781 71.5201 120.789 71.5185C120.676 71.7634 120.567 72.0079 120.462 72.2518L120.129 73.0209L120.829 73.4829C127.318 77.772 136.172 79.5109 145.121 78.6879C154.079 77.864 163.234 74.4649 170.347 68.3495L170.347 68.3495L170.353 68.3442C179.616 60.249 183.65 48.2968 186.048 32.9244L186.049 32.9157L186.05 32.9069C186.244 31.5037 186.407 30.0471 186.573 28.5691C186.962 25.0952 187.365 21.5032 188.207 18.2078C189.4 13.5339 191.396 9.8372 195.162 8.18428L194.818 6.27026L194.76 7.2686C194.818 6.27026 194.817 6.27024 194.817 6.27021L194.815 6.2701L194.807 6.26966L194.778 6.26802L194.664 6.26185C194.564 6.25653 194.415 6.2489 194.222 6.23957C193.835 6.2209 193.266 6.19543 192.538 6.16804C191.082 6.11325 188.985 6.05077 186.419 6.0197C181.288 5.95758 174.275 6.02095 166.75 6.52383C159.23 7.02641 151.175 7.96957 143.967 9.67473C136.787 11.3735 130.325 13.8562 126.1 17.5159C118.528 24.0655 113.723 33.4649 111.87 42.9481C110.047 52.273 111.054 61.8054 115.237 68.8768C115.3 68.9914 115.369 69.105 115.442 69.2171Z" fill="black" fill-opacity="0.2"/>
<path d="M115.442 69.2171C115.83 69.8503 116.224 70.353 116.642 70.6629C116.823 70.7972 117.045 70.9228 117.304 70.9867C118.251 71.5234 119.42 71.7804 120.765 71.5231C120.773 71.5216 120.781 71.5201 120.789 71.5185C120.676 71.7634 120.567 72.0079 120.462 72.2518L120.129 73.0209L120.829 73.4829C127.318 77.772 136.172 79.5109 145.121 78.6879C154.079 77.864 163.234 74.4649 170.347 68.3495L170.347 68.3495L170.353 68.3442C179.616 60.249 183.65 48.2968 186.048 32.9244L186.049 32.9157L186.05 32.9069C186.244 31.5037 186.407 30.0471 186.573 28.5691C186.962 25.0952 187.365 21.5032 188.207 18.2078C189.4 13.5339 191.396 9.8372 195.162 8.18428L194.818 6.27026L194.76 7.2686C194.818 6.27026 194.817 6.27024 194.817 6.27021L194.815 6.2701L194.807 6.26966L194.778 6.26802L194.664 6.26185C194.564 6.25653 194.415 6.2489 194.222 6.23957C193.835 6.2209 193.266 6.19543 192.538 6.16804C191.082 6.11325 188.985 6.05077 186.419 6.0197C181.288 5.95758 174.275 6.02095 166.75 6.52383C159.23 7.02641 151.175 7.96957 143.967 9.67473C136.787 11.3735 130.325 13.8562 126.1 17.5159C118.528 24.0655 113.723 33.4649 111.87 42.9481C110.047 52.273 111.054 61.8054 115.237 68.8768C115.3 68.9914 115.369 69.105 115.442 69.2171Z" stroke="black" stroke-width="2"/>
<defs>
<linearGradient id="paint0_linear_243_60" x1="208.71" y1="37.6697" x2="120.407" y2="31.4949" gradientUnits="userSpaceOnUse">
<stop stop-color="#D5E788"/>
<stop offset="1" stop-color="#10B981"/>
</linearGradient>
<radialGradient id="paint1_diamond_243_60" cx="0" cy="0" r="1" gradientUnits="userSpaceOnUse" gradientTransform="translate(153.506 -12.7179) rotate(161.732) scale(108.467 88.6697)">
<stop stop-color="#F6B409"/>
<stop offset="0.0001" stop-color="#879005"/>
<stop offset="0.0002" stop-color="#F6B409"/>
<stop offset="1" stop-color="#008000"/>
</radialGradient>
</defs>
</svg>
